<svg width="291" height="126" viewBox="0 0 291 126" fill="none" xmlns="http://www.w3.org/2000/svg">
<path d="M1.42334 63.3558C1.42334 42.5249 18.3102 25.6381 39.1411 25.6381H68.9964C81.8023 25.6381 94.3445 21.9992 105.162 15.1454L113.159 10.0788C127.25 1.15051 144.372 -1.64961 160.574 2.32439V2.32439C168.726 4.32405 176.397 7.98908 183.08 13.0682V13.0682C193.793 21.2098 206.904 25.6381 220.36 25.6381H247.656C268.487 25.6381 285.374 42.5249 285.374 63.3558V63.3558C285.374 84.1868 268.487 101.074 247.656 101.074H39.1411C18.3101 101.074 1.42334 84.1868 1.42334 63.3558V63.3558Z" fill="#F8F3E8"/>
<rect x="2" y="26" width="287" height="75" fill="#F8F3E8"/>
<path d="M288.932 62.6441C288.932 83.4751 272.046 100.362 251.215 100.362L221.359 100.362C208.553 100.362 196.011 104.001 185.194 110.855L177.197 115.921C163.105 124.849 145.984 127.65 129.782 123.676V123.676C121.63 121.676 113.958 118.011 107.275 112.932V112.932C96.5628 104.79 83.4512 100.362 69.9959 100.362L42.6993 100.362C21.8683 100.362 4.9815 83.4751 4.9815 62.6442V62.6442C4.9815 41.8132 21.8683 24.9264 42.6993 24.9264L251.215 24.9263C272.046 24.9263 288.932 41.8132 288.932 62.6441V62.6441Z" fill="#F8F3E8"/>
<rect x="288.356" y="100" width="287" height="75" transform="rotate(180 288.356 100)" fill="#F8F3E8"/>
<circle cx="145.534" cy="63" r="48.0368" fill="#3A857E"/>
<path fill-rule="evenodd" clip-rule="evenodd" d="M165.959 43.1054C165.01 42.1559 163.47 42.1559 162.521 43.1054L149.478 56.1478H120.863V61.0109H120.883C121.412 73.9724 132.086 84.3184 145.178 84.3184C158.269 84.3184 168.944 73.9724 169.472 61.0109H169.493V56.1478H156.356L165.959 46.5441C166.909 45.5945 166.909 44.055 165.959 43.1054ZM150.469 61.0109C150.48 61.0109 150.491 61.0109 150.502 61.0109H164.604C164.08 71.2856 155.583 79.4555 145.178 79.4555C134.773 79.4555 126.276 71.2856 125.752 61.0109H150.469Z" fill="white"/>
</svg>
