<svg width="129" height="126" viewBox="0 0 129 126" fill="none" xmlns="http://www.w3.org/2000/svg">
<circle cx="65" cy="63" r="63" fill="#F8F3E8"/>
<circle cx="65.0368" cy="63.0368" r="48.0368" fill="#3A857E"/>
<path fill-rule="evenodd" clip-rule="evenodd" d="M85.4625 43.1422C84.513 42.1927 82.9734 42.1927 82.0239 43.1422L68.9816 56.1846H40.3661V61.0477H40.3866C40.9147 74.0092 51.5896 84.3552 64.681 84.3552C77.7724 84.3552 88.4474 74.0092 88.9755 61.0477H88.9959V56.1846H75.8588L85.4625 46.5809C86.4122 45.6313 86.4122 44.0918 85.4625 43.1422ZM69.9724 61.0477C69.9831 61.0477 69.9941 61.0477 70.005 61.0477H84.1074C83.5832 71.3224 75.0861 79.4923 64.681 79.4923C54.2758 79.4923 45.7788 71.3224 45.2547 61.0477H69.9724Z" fill="white"/>
<rect y="30" width="11" height="66" fill="#F8F3E8"/>
<rect x="118" y="30" width="11" height="66" fill="#F8F3E8"/>
</svg>
